<?xml version="1.0" encoding="UTF-8" standalone="no"?>
<!DOCTYPE svg PUBLIC "-//W3C//DTD SVG 1.1//EN" "funziona">
<svg width="100%" height="100%" viewBox="0 0 2048 2048" version="1.1" xmlns="http://www.w3.org/2000/svg" xmlns:xlink="http://www.w3.org/1999/xlink" xml:space="preserve" style="fill-rule:evenodd;clip-rule:evenodd;stroke-linejoin:round;stroke-miterlimit:2;">
    <g id="Background" transform="matrix(1.894531,0,0,1.894531,59,59)">
        <path d="M119.5,697.987C309.961,697.987 310.387,697.665 314.603,700.332C321.081,704.432 321.116,704.513 324.349,711.582C325.29,713.639 327.954,712.142 327.964,717.499C328.01,740.535 328.53,1001.892 328.01,1005.448C327.822,1006.738 317.207,1019.069 316.221,1020.214C313.632,1023.222 312.73,1022.86 76.5,1022.86L37.5,1022.86C15.871,1022.917 13.265,1024.468 1.351,1006.575C0.719,1005.626 1.225,821.691 1.038,718.499C1.026,711.919 5.707,709.048 12.779,700.786C16.745,696.153 44.477,698.79 119.5,697.987L260.5,965.994C266.947,965.634 268.964,967.524 268.977,963.513C269.03,946.956 269.636,758.587 269.051,756.552C268.489,754.593 267.464,754.864 71.5,754.858C70.578,754.858 60.449,754.857 60.074,756.392C59.91,757.065 60.173,922.241 59.947,963.495C59.93,966.513 61.883,965.994 140.5,965.994L260.5,965.994L119.5,697.987Z" style="fill:rgb(67,146,248);fill-opacity:0.93;"/>
        <path d="M697.993,264.5C698.398,225.326 698.073,39.093 698.039,19.492C698.027,12.943 710.055,4.964 713.739,1.784C715.156,0.56 1005.863,0.578 1007.261,1.784C1014.362,7.909 1015.027,6.848 1015.513,7.486C1021.431,15.261 1022.959,14.851 1022.936,24.496C1022.333,287.702 1023.293,287.678 1022.919,310.56C1022.819,316.675 1011.461,322.708 1006.52,327.523C1005.988,328.041 1005.806,327.934 741.5,327.942C720.842,327.943 719.046,330.113 709.398,323.667C695.003,314.051 697.993,308.853 697.993,264.5L945.5,60.025C772.864,60.025 769.414,60.06 757.505,59.938C754.48,59.907 754.87,61.929 754.87,205.5C754.87,266.92 754.224,268.962 757.487,268.973C774.044,269.026 962.08,269.634 964.449,269.042C965.899,268.679 966.182,267.775 966.115,71.5C966.111,62.184 966.993,61.867 965.548,60.453C964.498,59.426 964.411,60.07 945.5,60.025L697.993,264.5Z" style="fill:rgb(67,146,248);fill-opacity:0.94;"/>
        <path d="M697.993,898.5C698.168,878.486 698.109,878.518 698.107,742.5C698.106,723.693 693.834,722.577 703.349,706.423C705.62,702.567 706.902,704.08 709.779,700.786C712.459,697.718 713.361,698.094 926.5,698.094C1006.779,698.094 1008.186,696.852 1015.26,703.784C1022.956,711.326 1022.941,719.025 1022.938,720.497C1022.391,998.816 1024.415,1007.846 1020.536,1011.536C1009.889,1021.665 1010.07,1022.958 1000.504,1022.929C737.269,1022.123 737.289,1023.462 714.408,1022.912C713.481,1022.89 709.536,1019.482 706.423,1017.649C702.26,1015.199 703.722,1014.095 702.216,1012.778C697.272,1008.454 697.993,1007.254 697.993,898.5L906.5,965.994C964.119,965.994 966.08,966.653 966.115,963.496C966.298,947.007 966.131,773.984 966.115,757.504C966.112,754.309 964.078,754.858 885.5,754.858C756.428,754.858 755.492,754.623 755.032,756.383C754.825,757.174 754.875,757.09 754.87,952.5C754.87,953.583 754.87,965.635 756.387,965.95C756.629,966 756.594,965.994 906.5,965.994L697.993,898.5Z" style="fill:rgb(67,146,248);fill-opacity:0.95;"/>
        <path d="M325.002,31.518C324.617,302.412 326.462,303.366 321.706,310.621C310.412,327.85 306.387,325.198 219.5,325.198C24.487,325.198 23.871,325.638 18.646,322.202C1.011,310.604 3.653,306.394 3.653,216.5C3.653,25.769 3.262,25.351 6.309,19.417C15.776,0.977 22.277,3.828 122.5,3.828C302.854,3.828 303.28,3.42 309.454,6.602C323.078,13.625 324.751,29.182 325.002,31.518L268.978,134.5C268.977,110.496 268.977,86.492 268.977,62.487C268.957,56.097 265.536,60 257.5,60.025C61.185,60.645 60.38,59.936 59.963,61.549C59.366,63.854 59.975,250.116 60.029,266.513C60.05,272.905 63.473,268.998 71.5,268.973C80.157,268.947 267.139,269.03 267.606,268.927C269.186,268.581 268.978,267.7 268.978,134.5L325.002,31.518Z" style="fill:rgb(67,146,248);fill-opacity:0.99;"/>
        <path d="M730.498,487C611.912,486.242 610.253,490.326 600.539,482.46C587.08,471.562 590.05,469.002 590.05,431.5C590.05,329.96 590.488,328.038 587.513,328.028C502.613,327.75 394.527,328.839 392.739,327.216C389.174,323.98 377.014,316.416 377.04,309.509C377.424,207.554 376.757,18.491 377.351,17.425C382.831,7.595 385.473,8.051 392.739,1.784C394.086,0.622 417.178,0.593 418.221,1.786C418.931,2.597 419.783,1.551 428.547,10.453C435.12,17.128 433.896,18.286 433.896,83.5C433.896,267.598 433.691,268.567 435.393,268.928C439.914,269.887 632.134,267.133 633.65,270.418C635.774,275.023 637.703,273.153 640.775,277.22C641.173,277.747 643.75,277.9 644.68,280.425C646.293,284.804 648.835,283.676 648.919,288.444C649.58,325.642 647.316,429.251 650.392,429.934C655.495,431.067 732.662,427.775 740.423,431.652C747.544,435.209 746.221,436.632 752.514,441.486C754.656,443.139 757.826,470.536 752.218,476.218C743,485.556 742.96,486.605 730.498,487Z" style="fill:rgb(67,146,248);fill-opacity:0.93;"/>
        <path d="M515.499,755.001C506.209,755.001 505.74,757.829 497.576,753.348C479.182,743.252 483.064,732.134 483.064,698.5C483.064,597.971 483.506,596.041 480.513,596.031C374.134,595.681 126.769,596.933 124.74,595.217C115.583,587.475 113.944,588.759 109.323,577.573C108.746,576.178 109.203,576.109 108.97,556.504C108.955,555.232 108.932,553.327 116.486,542.486C117.114,541.585 118.527,543.146 124.739,537.784C126.428,536.326 523.181,537.127 523.574,537.351C546.495,550.373 541.951,556.657 541.951,594.5C541.951,737.128 542.174,737.491 540.455,739.457C537.086,743.311 539.652,745.492 533.472,748.466C532.807,748.786 533.457,749.209 526.524,754.53C525.823,755.067 525.719,754.564 515.499,755.001Z" style="fill:rgb(67,146,248);fill-opacity:0.91;"/>
        <path d="M619.5,644.999C623.814,645.144 628.135,644.845 632.448,644.99C636.164,645.115 648.955,659.732 648.96,664.492C648.988,691.689 649.31,1001.413 649.001,1004.457C648.909,1005.368 647.357,1004.472 643.648,1014.58C643.413,1015.221 642.386,1014.147 637.514,1020.514C634.86,1023.982 633.754,1022.452 502.497,1022.957C496.918,1022.978 490.38,1017.174 488.652,1013.418C487.788,1011.54 486.246,1012.637 483.32,1005.574C482.427,1003.418 482.242,980.636 486.48,977.477C488.024,976.327 495.806,966.032 502.491,966.041C585.184,966.163 589.861,966.649 589.924,964.606C590.319,951.804 589.315,662.996 590.47,661.476C597.448,652.291 596.235,650.943 606.425,645.351C607.343,644.847 607.405,645.081 619.5,644.999Z" style="fill:rgb(67,146,248);fill-opacity:0.92;"/>
        <path d="M697.987,566.5C698.027,565.065 698.423,550.801 700.786,548.779C703.596,546.375 704.216,546.954 705.081,543.39C705.705,540.819 707.693,543.001 713.739,537.784C714.685,536.967 714.872,537.063 926.5,537.063C1004.316,537.063 1004.814,536.342 1011.523,540.472C1017.529,544.169 1018.232,547.293 1018.479,547.524C1028.325,556.761 1020.807,584.309 1020.514,584.514C1014.27,588.88 1015.069,589.846 1014.436,590.017C1008.222,591.698 1007.785,595.109 1006.578,595.648C1004.524,596.566 739.699,596.011 716.493,595.963C713.495,595.956 702.912,586.044 700.785,584.221C698.461,582.229 698.031,567.934 697.987,566.5Z" style="fill:rgb(67,146,248);fill-opacity:0.91;"/>
        <path d="M541.5,220.011C512.528,220.011 497.15,222.713 489.473,211.522C484.707,204.574 482.089,204.932 482.998,180.543C483.118,177.348 493.658,166.908 494.35,165.418C497.851,157.878 588.891,165.295 589.924,160.605C591.049,155.495 587.752,20.002 591.742,16.779C593.062,15.713 591.913,14.586 606.739,1.784C607.897,0.784 632.299,-0.97 637.22,4.786C647.72,17.065 648.925,17.181 648.933,33.5C649.013,188.095 649.294,188.023 649.001,201.457C648.969,202.931 638.103,217.049 636.58,217.649C626.032,221.806 618.645,219.13 541.5,220.011Z" style="fill:rgb(67,146,248);fill-opacity:0.91;"/>
        <path d="M26.502,487.001C25.364,486.961 14.713,486.582 12.489,484.511C11.373,483.473 1.123,471.463 1.086,470.594C0.122,447.827 -2.167,444.746 16.542,431.545C18.878,429.896 19.136,430.088 232.5,430.088C309.848,430.088 310.603,429.3 316.218,433.783C323.009,439.205 320.971,440.873 327.523,446.48C328.338,447.177 328.168,470.871 327.523,471.52C319.515,479.574 321.719,482.074 311.574,486.679C310.326,487.246 106.859,486.507 26.502,487.001Z" style="fill:rgb(67,146,248);fill-opacity:0.94;"/>
        <path d="M402.502,805C402.638,805.001 402.623,805.18 515.505,805.086C519.508,809.375 529.337,810.282 533.345,816.611C538.232,824.329 548.198,840.92 526.775,856.879C526.253,857.268 523.575,859.263 519.507,860.526C516.712,861.394 516.886,861.388 514.503,862.905C442.898,862.866 436.089,862.85 435.38,863.032C433.8,863.437 433.823,864.257 433.892,996.505C426.26,1008.761 429.44,1011.471 417.275,1019.068C413.898,1021.177 413.621,1020.345 410.509,1022.901L402.491,1022.883C401.211,1022.206 401.146,1019.068 395.6,1020.25C395.491,1020.273 392.76,1018.622 392.517,1018.474C385.322,1014.124 385.726,1013.673 377.114,997.509C377.211,860.136 377.094,843.864 376.999,830.503C377.361,829.912 378.458,830.091 378.82,829.5C380.283,827.108 379.409,815.269 396.488,808.466C399.788,807.152 399.513,807.111 402.502,805Z" style="fill:rgb(250,252,254);fill-opacity:0.98;"/>
        <path d="M998.498,487.002C826.471,485.781 823.392,492.459 810.478,479.519C803.868,472.896 800.62,451.865 808.471,441.477C819.25,427.213 823.149,430.088 874.5,430.088C1008.27,430.088 1009.863,429.531 1011.649,433.419C1011.978,434.135 1012.29,433.75 1018.479,440.525C1022.328,444.738 1023.53,444.959 1022.92,471.56C1022.846,474.781 1010.155,486.837 1007.557,486.92C1004.538,487.016 1001.516,486.905 998.498,487.002Z" style="fill:rgb(67,146,248);fill-opacity:0.93;"/>
        <path d="M135.495,805.094C154.831,805.093 174.168,805.093 193.505,805.093C195.565,806.408 195.361,806.431 197.536,807.329C212.981,813.698 212.911,818.273 216.993,825.345C218.727,828.35 217.283,828.91 219.909,831.493C219.91,851.164 219.91,870.835 219.911,890.506C215.729,894.186 217.901,895.39 215.062,900.221C205.883,915.837 192.353,914.259 190.5,915.083C189.864,915.365 190.137,916.632 189.501,916.915C172.5,916.915 155.499,916.915 138.498,916.915C137.859,916.588 138.139,915.333 137.5,915.006C134.572,913.505 124.168,916.788 113.689,900.37C110.84,895.907 113.03,894.702 108.988,891.496C109.001,861.494 109.128,861.724 109.112,831.492C112.804,826.811 110.76,825.917 113.95,820.834C117.213,815.635 117.163,815.696 122.21,812.047C130.168,806.293 131.045,808.678 134.5,806.878C135.104,806.564 134.891,805.408 135.495,805.094Z" style="fill:rgb(251,252,254);fill-opacity:0.97;"/>
        <path d="M136.496,109.111C155.833,109.107 175.17,109.103 194.507,109.099C197.851,112.959 198.928,111.016 203.435,113.619C217.783,121.906 218.256,134.307 219.897,139.499C219.9,157.502 219.904,175.504 219.907,193.507C215.656,197.562 215.908,207.011 208.4,212.352C200.133,218.234 198.228,215.525 194.496,220.015C182.391,219.824 182.469,219.876 134.491,219.903C129.31,215.68 122.024,215.796 116.442,208.539C111.488,202.098 114.3,200.549 108.991,194.496C109,164.469 109.129,164.606 109.107,134.492C111.468,131.729 112.169,132.117 112.199,129.5C112.342,117.001 135.369,109.942 136.496,109.111Z" style="fill:rgb(251,252,254);fill-opacity:0.98;"/>
        <path d="M890.498,804.997C891.911,806.353 891.659,806.529 893.549,807.262C922.587,818.523 913.313,840.129 914.402,888.5C914.71,902.22 901.642,913.615 891.5,914.293C887.868,914.536 888.572,915.829 886.502,916.915C879.168,916.915 871.834,916.914 864.5,916.914C836.718,916.914 836.876,917.24 834.498,916.916C833.719,916.809 834.911,915.147 831.5,914.544C827.856,913.9 827.897,914.233 824.397,912.766C808.452,906.084 805.302,903.067 806.585,835.502C807.006,813.296 821.667,811.26 831.495,805.091C877.363,805.121 879.271,805.175 890.498,804.997Z" style="fill:rgb(251,253,254);fill-opacity:0.98;"/>
        <path d="M831.493,109.105C849.83,109.109 868.166,109.113 886.503,109.116C888.667,110.006 888.785,109.307 890.5,110.759C891.796,111.856 908.135,111.97 913.811,131.42C915.269,136.415 914.135,189.212 914.363,192.5C915.591,210.188 893.256,217.743 891.508,219.911C860.88,219.885 861.021,219.84 830.504,220.015C827.313,215.994 819.456,215.843 814.969,211.045C804.108,199.434 806.573,183.407 806.571,178.5C806.558,140.318 803.314,124.141 820.832,113.985C826.077,110.944 827.236,113.447 831.493,109.105Z" style="fill:rgb(252,253,254);fill-opacity:0.98;"/>
        <path d="M513.505,430.096C517.114,434.298 533.768,434.069 539.13,452.564C543.012,465.953 531.052,483.403 521.5,484.425C517.393,484.864 518.424,486.329 517.512,486.893C478.504,486.893 439.496,486.892 400.488,486.891C391.516,481.431 381.58,478.524 380.055,467.5C379.382,462.638 377.629,463.527 377,462.496C377.036,460.161 377.072,457.826 377.109,455.491C379.548,453.19 384.566,434.423 398.5,433.24C404.687,432.715 403.904,430.175 404.495,430.097C404.542,430.091 452.17,430.129 513.505,430.096Z" style="fill:rgb(250,252,254);fill-opacity:0.98;"/>
        <path d="M31.502,537.081C33.547,538.221 33.061,538.895 35.529,539.326C44.429,540.882 58.348,551.727 57.618,566.502C55.62,606.978 -1.805,596.207 3.146,563.461C6.481,541.398 29.342,538.402 31.502,537.081Z" style="fill:rgb(248,250,254);fill-opacity:0.98;"/>
        <path d="M620.5,537.081C621.133,537.362 620.868,538.619 621.5,538.901C628.158,541.863 628.812,540.094 634.69,544.193C636.418,545.398 647.026,552.796 646.965,567.5C646.728,571.105 646.347,572.067 646.2,572.439C629.673,614.183 584.855,585.966 593.121,559.407C598.963,540.636 617.389,538.986 620.5,537.081Z" style="fill:rgb(248,251,254);fill-opacity:0.98;"/>
    </g>
</svg>
